#define max_width 14
#define max_height 13
static unsigned char max_bits[] = {
   0x1c, 0x0e, 0x32, 0x19, 0xfd, 0x3e, 0x3d, 0x3f, 0x3f, 0x3f, 0x0f, 0x3c,
   0x0f, 0x3c, 0x3f, 0x3f, 0x3e, 0x1f, 0xfc, 0x0f, 0xf8, 0x07, 0xe0, 0x01,
   0xc0, 0x00 };
